<svg xmlns="http://www.w3.org/2000/svg" viewBox="0 0 64 64" role="img" aria-label="Pankaj Patel icon">
  <defs>
    <linearGradient id="bg" x1="6" y1="58" x2="58" y2="6" gradientUnits="userSpaceOnUse">
      <stop stop-color="#0B0F14"/>
      <stop offset=".5" stop-color="#111827"/>
      <stop offset="1" stop-color="#0B0F14"/>
    </linearGradient>
    <linearGradient id="bolt" x1="22" y1="44" x2="44" y2="20" gradientUnits="userSpaceOnUse">
      <stop stop-color="#bef264"/>
      <stop offset="1" stop-color="#22c55e"/>
    </linearGradient>
  </defs>
  <rect x="4" y="4" width="56" height="56" rx="14" fill="url(#bg)"/>
  <rect x="4" y="4" width="56" height="56" rx="14" fill="#22c55e" fill-opacity=".04"/>

  <!-- Kettlebell silhouette -->
  <path d="M24 20a8 8 0 0 1 16 0v3h-4v-3a4 4 0 1 0-8 0v3h-4v-3z" fill="#e2e8f0" fill-opacity=".9"/>
  <path d="M20 26h24a2 2 0 0 1 2 2v16a10 10 0 0 1-10 10H28a10 10 0 0 1-10-10V28a2 2 0 0 1 2-2z" fill="#0f172a" stroke="#e2e8f0" stroke-opacity=".7" stroke-width="1.4"/>
  <path d="M24 34h16c1.1 0 2 .9 2 2v8c0 3.3-2.7 6-6 6h-8c-3.3 0-6-2.7-6-6v-8c0-1.1.9-2 2-2z" fill="#111827" stroke="#22c55e" stroke-opacity=".5" stroke-width="1.2"/>
  <path d="M28 40h8v3h-8z" fill="#e2e8f0" fill-opacity=".8"/>

  <!-- Accent bolt -->
  <path d="M35 22h5l-4 8h4l-6 10 1.5-7H31l4-11z" fill="url(#bolt)" stroke="#0b0f14" stroke-opacity=".4" stroke-width="0.8"/>
</svg>
